  0
SECTION
  2
HEADER
  9
$ACADVER
  1
AC1015
  9
$ACADMAINTVER
 70
     6
  9
$DWGCODEPAGE
  3
ANSI_1252
  9
$INSBASE
 10
0.0
 20
0.0
 30
0.0
  9
$EXTMIN
 10
-89.9769076114
 20
-6.4575131106
 30
0.0
  9
$EXTMAX
 10
-40.0230923886
 20
46.4575131106
 30
0.0
  9
$LIMMIN
 10
0.0
 20
0.0
  9
$LIMMAX
 10
420.0
 20
297.0
  9
$ORTHOMODE
 70
     0
  9
$REGENMODE
 70
     1
  9
$FILLMODE
 70
     1
  9
$QTEXTMODE
 70
     0
  9
$MIRRTEXT
 70
     1
  9
$LTSCALE
 40
1.0
  9
$ATTMODE
 70
     1
  9
$TEXTSIZE
 40
3.5
  9
$TRACEWID
 40
1.0
  9
$TEXTSTYLE
  7
Standard
  9
$CLAYER
  8
0
  9
$CELTYPE
  6
ByLayer
  9
$CECOLOR
 62
   256
  9
$CELTSCALE
 40
1.0
  9
$DISPSILH
 70
     0
  9
$DIMSCALE
 40
1.0
  9
$DIMASZ
 40
3.556
  9
$DIMEXO
 40
0.0
  9
$DIMDLI
 40
3.75
  9
$DIMRND
 40
0.0
  9
$DIMDLE
 40
0.0
  9
$DIMEXE
 40
1.0
  9
$DIMTP
 40
0.0
  9
$DIMTM
 40
0.0
  9
$DIMTXT
 40
3.5
  9
$DIMCEN
 40
2.5
  9
$DIMTSZ
 40
0.0
  9
$DIMTOL
 70
     0
  9
$DIMLIM
 70
     0
  9
$DIMTIH
 70
     1
  9
$DIMTOH
 70
     1
  9
$DIMSE1
 70
     0
  9
$DIMSE2
 70
     0
  9
$DIMTAD
 70
     1
  9
$DIMZIN
 70
     1
  9
$DIMBLK
  1

  9
$DIMASO
 70
     1
  9
$DIMSHO
 70
     1
  9
$DIMPOST
  1

  9
$DIMAPOST
  1

  9
$DIMALT
 70
     0
  9
$DIMALTD
 70
     3
  9
$DIMALTF
 40
0.0393700787
  9
$DIMLFAC
 40
1.0
  9
$DIMTOFL
 70
     1
  9
$DIMTVP
 40
0.0
  9
$DIMTIX
 70
     0
  9
$DIMSOXD
 70
     0
  9
$DIMSAH
 70
     0
  9
$DIMBLK1
  1

  9
$DIMBLK2
  1

  9
$DIMSTYLE
  2
ISO-25
  9
$DIMCLRD
 70
     0
  9
$DIMCLRE
 70
     0
  9
$DIMCLRT
 70
     0
  9
$DIMTFAC
 40
1.0
  9
$DIMGAP
 40
1.524
  9
$DIMJUST
 70
     0
  9
$DIMSD1
 70
     0
  9
$DIMSD2
 70
     0
  9
$DIMTOLJ
 70
     0
  9
$DIMTZIN
 70
     1
  9
$DIMALTZ
 70
     0
  9
$DIMALTTZ
 70
     0
  9
$DIMUPT
 70
     0
  9
$DIMDEC
 70
     2
  9
$DIMTDEC
 70
     2
  9
$DIMALTU
 70
     2
  9
$DIMALTTD
 70
     3
  9
$DIMTXSTY
  7
Standard
  9
$DIMAUNIT
 70
     0
  9
$DIMADEC
 70
     2
  9
$DIMALTRND
 40
0.0
  9
$DIMAZIN
 70
     0
  9
$DIMDSEP
 70
    44
  9
$DIMATFIT
 70
     3
  9
$DIMFRAC
 70
     0
  9
$DIMLDRBLK
  1

  9
$DIMLUNIT
 70
     2
  9
$DIMLWD
 70
    -2
  9
$DIMLWE
 70
    -2
  9
$DIMTMOVE
 70
     0
  9
$LUNITS
 70
     2
  9
$LUPREC
 70
     6
  9
$SKETCHINC
 40
1.0
  9
$FILLETRAD
 40
0.0
  9
$AUNITS
 70
     0
  9
$AUPREC
 70
     2
  9
$MENU
  1
.
  9
$ELEVATION
 40
0.0
  9
$PELEVATION
 40
0.0
  9
$THICKNESS
 40
0.0
  9
$LIMCHECK
 70
     0
  9
$CHAMFERA
 40
0.0
  9
$CHAMFERB
 40
0.0
  9
$CHAMFERC
 40
0.0
  9
$CHAMFERD
 40
0.0
  9
$SKPOLY
 70
     0
  9
$TDCREATE
 40
2460721.551303009
  9
$TDUCREATE
 40
2460721.009636343
  9
$TDUPDATE
 40
2460721.551330255
  9
$TDUUPDATE
 40
2460721.009663588
  9
$TDINDWG
 40
0.0000000116
  9
$TDUSRTIMER
 40
0.0000000116
  9
$USRTIMER
 70
     1
  9
$ANGBASE
 50
0.0
  9
$ANGDIR
 70
     0
  9
$PDMODE
 70
     0
  9
$PDSIZE
 40
-1.0
  9
$PLINEWID
 40
0.0
  9
$SPLFRAME
 70
     0
  9
$SPLINETYPE
 70
     6
  9
$SPLINESEGS
 70
     8
  9
$HANDSEED
  5
E6
  9
$SURFTAB1
 70
     6
  9
$SURFTAB2
 70
     6
  9
$SURFTYPE
 70
     6
  9
$SURFU
 70
     6
  9
$SURFV
 70
     6
  9
$UCSBASE
  2

  9
$UCSNAME
  2

  9
$UCSORG
 10
0.0
 20
0.0
 30
0.0
  9
$UCSXDIR
 10
1.0
 20
0.0
 30
0.0
  9
$UCSYDIR
 10
0.0
 20
1.0
 30
0.0
  9
$UCSORTHOREF
  2

  9
$UCSORTHOVIEW
 70
     0
  9
$UCSORGTOP
 10
0.0
 20
0.0
 30
0.0
  9
$UCSORGBOTTOM
 10
0.0
 20
0.0
 30
0.0
  9
$UCSORGLEFT
 10
0.0
 20
0.0
 30
0.0
  9
$UCSORGRIGHT
 10
0.0
 20
0.0
 30
0.0
  9
$UCSORGFRONT
 10
0.0
 20
0.0
 30
0.0
  9
$UCSORGBACK
 10
0.0
 20
0.0
 30
0.0
  9
$PUCSBASE
  2

  9
$PUCSNAME
  2

  9
$PUCSORG
 10
0.0
 20
0.0
 30
0.0
  9
$PUCSXDIR
 10
1.0
 20
0.0
 30
0.0
  9
$PUCSYDIR
 10
0.0
 20
1.0
 30
0.0
  9
$PUCSORTHOREF
  2

  9
$PUCSORTHOVIEW
 70
     0
  9
$PUCSORGTOP
 10
0.0
 20
0.0
 30
0.0
  9
$PUCSORGBOTTOM
 10
0.0
 20
0.0
 30
0.0
  9
$PUCSORGLEFT
 10
0.0
 20
0.0
 30
0.0
  9
$PUCSORGRIGHT
 10
0.0
 20
0.0
 30
0.0
  9
$PUCSORGFRONT
 10
0.0
 20
0.0
 30
0.0
  9
$PUCSORGBACK
 10
0.0
 20
0.0
 30
0.0
  9
$USERI1
 70
     0
  9
$USERI2
 70
     0
  9
$USERI3
 70
     0
  9
$USERI4
 70
     0
  9
$USERI5
 70
     0
  9
$USERR1
 40
0.0
  9
$USERR2
 40
0.0
  9
$USERR3
 40
0.0
  9
$USERR4
 40
0.0
  9
$USERR5
 40
0.0
  9
$WORLDVIEW
 70
     1
  9
$SHADEDGE
 70
     3
  9
$SHADEDIF
 70
    70
  9
$TILEMODE
 70
     1
  9
$MAXACTVP
 70
    64
  9
$PINSBASE
 10
0.0
 20
0.0
 30
0.0
  9
$PLIMCHECK
 70
     0
  9
$PEXTMIN
 10
1.0000000000E+20
 20
1.0000000000E+20
 30
1.0000000000E+20
  9
$PEXTMAX
 10
-1.0000000000E+20
 20
-1.0000000000E+20
 30
-1.0000000000E+20
  9
$PLIMMIN
 10
0.0
 20
0.0
  9
$PLIMMAX
 10
420.0
 20
297.0
  9
$UNITMODE
 70
     0
  9
$VISRETAIN
 70
     1
  9
$PLINEGEN
 70
     0
  9
$PSLTSCALE
 70
     1
  9
$TREEDEPTH
 70
  3020
  9
$CMLSTYLE
  2
Standard
  9
$CMLJUST
 70
     0
  9
$CMLSCALE
 40
20.0
  9
$PROXYGRAPHICS
 70
     1
  9
$MEASUREMENT
 70
     1
  9
$CELWEIGHT
370
    -1
  9
$ENDCAPS
280
     0
  9
$JOINSTYLE
280
     0
  9
$LWDISPLAY
290
     1
  9
$INSUNITS
 70
     4
  9
$HYPERLINKBASE
  1

  9
$STYLESHEET
  1

  9
$XEDIT
290
     1
  9
$CEPSNTYPE
380
     0
  9
$PSTYLEMODE
290
     1
  9
$FINGERPRINTGUID
  2
{7a1279e1-13d5-4658-9f23-66a54e7bdd3a}
  9
$VERSIONGUID
  2
{FAEB1C32-E019-11D5-929B-00C0DF256EC4}
  9
$EXTNAMES
290
     1
  9
$PSVPSCALE
 40
0.0
  9
$OLESTARTUP
290
     0
  0
ENDSEC
  0
SECTION
  2
CLASSES
  0
CLASS
  1
ACDBDICTIONARYWDFLT
  2
AcDbDictionaryWithDefault
  3
ObjectDBX Classes
 90
        0
280
     0
281
     0
  0
CLASS
  1
VISUALSTYLE
  2
AcDbVisualStyle
  3
ObjectDBX Classes
 90
     4095
280
     0
281
     0
  0
CLASS
  1
MATERIAL
  2
AcDbMaterial
  3
ObjectDBX Classes
 90
     1153
280
     0
281
     0
  0
CLASS
  1
SCALE
  2
AcDbScale
  3
ObjectDBX Classes
 90
     1153
280
     0
281
     0
  0
CLASS
  1
TABLESTYLE
  2
AcDbTableStyle
  3
ObjectDBX Classes
 90
     4095
280
     0
281
     0
  0
CLASS
  1
MLEADERSTYLE
  2
AcDbMLeaderStyle
  3
ACDB_MLEADERSTYLE_CLASS
 90
     4095
280
     0
281
     0
  0
CLASS
  1
SUN
  2
AcDbSun
  3
SCENEOE
 90
     1153
280
     0
281
     0
  0
CLASS
  1
ACDBPLACEHOLDER
  2
AcDbPlaceHolder
  3
ObjectDBX Classes
 90
        0
280
     0
281
     0
  0
CLASS
  1
LAYOUT
  2
AcDbLayout
  3
ObjectDBX Classes
 90
        0
280
     0
281
     0
  0
ENDSEC
  0
SECTION
  2
TABLES
  0
TABLE
  2
VPORT
  5
8
330
0
100
AcDbSymbolTable
 70
     1
  0
VPORT
  5
29
330
8
100
AcDbSymbolTableRecord
100
AcDbViewportTableRecord
  2
*Active
 70
     0
 10
0.0
 20
0.0
 11
1.0
 21
1.0
 12
-65.0
 22
20.0
 13
0.0
 23
0.0
 14
10.0
 24
10.0
 15
10.0
 25
10.0
 16
0.0
 26
0.0
 36
1.0
 17
0.0
 27
0.0
 37
0.0
 40
53.9733267457
 41
0.9440383723
 42
50.0
 43
0.0
 44
0.0
 50
0.0
 51
0.0
 71
     0
 72
   100
 73
     1
 74
     3
 75
     0
 76
     0
 77
     0
 78
     0
281
     0
 65
     1
110
0.0
120
0.0
130
0.0
111
1.0
121
0.0
131
0.0
112
0.0
122
1.0
132
0.0
 79
     0
146
0.0
  0
ENDTAB
  0
TABLE
  2
LTYPE
  5
5
330
0
100
AcDbSymbolTable
 70
     6
  0
LTYPE
  5
14
330
5
100
AcDbSymbolTableRecord
100
AcDbLinetypeTableRecord
  2
ByBlock
 70
     0
  3

 72
    65
 73
     0
 40
0.0
  0
LTYPE
  5
15
330
5
100
AcDbSymbolTableRecord
100
AcDbLinetypeTableRecord
  2
ByLayer
 70
     0
  3

 72
    65
 73
     0
 40
0.0
  0
LTYPE
  5
16
330
5
100
AcDbSymbolTableRecord
100
AcDbLinetypeTableRecord
  2
Continuous
 70
     0
  3
Solid line
 72
    65
 73
     0
 40
0.0
  0
LTYPE
  5
5E
330
5
100
AcDbSymbolTableRecord
100
AcDbLinetypeTableRecord
  2
HIDDEN
 70
     0
  3
Hidden __ __ __ __ __ __ __ __ __ __ __ __ __ __
 72
    65
 73
     2
 40
1.905
 49
1.27
 74
     0
 49
-0.635
 74
     0
  0
LTYPE
  5
5F
330
5
100
AcDbSymbolTableRecord
100
AcDbLinetypeTableRecord
  2
PHANTOM
 70
     0
  3
Phantom ______  __  __  ______  __  __  ______
 72
    65
 73
     6
 40
12.7
 49
6.35
 74
     0
 49
-1.27
 74
     0
 49
1.27
 74
     0
 49
-1.27
 74
     0
 49
1.27
 74
     0
 49
-1.27
 74
     0
  0
LTYPE
  5
60
330
5
100
AcDbSymbolTableRecord
100
AcDbLinetypeTableRecord
  2
CENTER
 70
     0
  3
Center ____ _ ____ _ ____ _ ____ _ ____ _ ____
 72
    65
 73
     4
 40
10.16
 49
6.35
 74
     0
 49
-1.27
 74
     0
 49
1.27
 74
     0
 49
-1.27
 74
     0
  0
LTYPE
  5
61
330
5
100
AcDbSymbolTableRecord
100
AcDbLinetypeTableRecord
  2
CENTERX2
 70
     0
  3
Center (2x) ________  __  ________  __  _____
 72
    65
 73
     4
 40
20.32
 49
12.7
 74
     0
 49
-2.54
 74
     0
 49
2.54
 74
     0
 49
-2.54
 74
     0
  0
LTYPE
  5
62
330
5
100
AcDbSymbolTableRecord
100
AcDbLinetypeTableRecord
  2
DOT2
 70
     0
  3
Dot (.5x) ........................................
 72
    65
 73
     2
 40
0.635
 49
0.0
 74
     0
 49
-0.635
 74
     0
  0
ENDTAB
  0
TABLE
  2
LAYER
  5
2
330
0
100
AcDbSymbolTable
 70
     1
  0
LAYER
  5
10
330
2
100
AcDbSymbolTableRecord
100
AcDbLayerTableRecord
  2
0
 70
     0
 62
     7
  6
Continuous
370
    -3
390
F
  0
ENDTAB
  0
TABLE
  2
STYLE
  5
3
330
0
100
AcDbSymbolTable
 70
     2
  0
STYLE
  5
11
330
3
100
AcDbSymbolTableRecord
100
AcDbTextStyleTableRecord
  2
Standard
 70
     0
 40
0.0
 41
1.0
 50
0.0
 71
     0
 42
3.5
  3
txt
  4

  0
STYLE
  5
E2
330
3
100
AcDbSymbolTableRecord
100
AcDbTextStyleTableRecord
  2
SLDTEXTSTYLE0
 70
     0
 40
0.0
 41
0.7
 50
0.0
 71
     0
 42
3.5
  3
TXT
  4

  0
ENDTAB
  0
TABLE
  2
VIEW
  5
6
330
0
100
AcDbSymbolTable
 70
     0
  0
ENDTAB
  0
TABLE
  2
UCS
  5
7
330
0
100
AcDbSymbolTable
 70
     0
  0
ENDTAB
  0
TABLE
  2
APPID
  5
9
330
0
100
AcDbSymbolTable
 70
     1
  0
APPID
  5
12
330
9
100
AcDbSymbolTableRecord
100
AcDbRegAppTableRecord
  2
ACAD
 70
     0
  0
ENDTAB
  0
TABLE
  2
DIMSTYLE
  5
A
330
0
100
AcDbSymbolTable
 70
     1
100
AcDbDimStyleTable
  0
DIMSTYLE
105
27
330
A
100
AcDbSymbolTableRecord
100
AcDbDimStyleTableRecord
  2
ISO-25
 70
     0
 41
2.5
 42
0.625
 43
3.75
 44
1.25
 73
     0
 74
     0
 77
     1
 78
     8
140
2.5
141
2.5
143
0.0393700787
147
0.625
171
     3
172
     1
178
     0
271
     2
272
     2
274
     3
278
    44
283
     0
284
     8
340
11
  0
ENDTAB
  0
TABLE
  2
BLOCK_RECORD
  5
1
330
0
100
AcDbSymbolTable
 70
     1
  0
BLOCK_RECORD
  5
1F
330
1
100
AcDbSymbolTableRecord
100
AcDbBlockTableRecord
  2
*Model_Space
340
22
  0
BLOCK_RECORD
  5
1B
330
1
100
AcDbSymbolTableRecord
100
AcDbBlockTableRecord
  2
*Paper_Space
340
1E
  0
BLOCK_RECORD
  5
23
330
1
100
AcDbSymbolTableRecord
100
AcDbBlockTableRecord
  2
*Paper_Space0
340
26
  0
ENDTAB
  0
ENDSEC
  0
SECTION
  2
BLOCKS
  0
BLOCK
  5
20
330
1F
100
AcDbEntity
  8
0
100
AcDbBlockBegin
  2
*Model_Space
 70
     0
 10
0.0
 20
0.0
 30
0.0
  3
*Model_Space
  1

  0
ENDBLK
  5
21
330
1F
100
AcDbEntity
  8
0
100
AcDbBlockEnd
  0
BLOCK
  5
1C
330
1B
100
AcDbEntity
 67
     1
  8
0
100
AcDbBlockBegin
  2
*Paper_Space
 70
     0
 10
0.0
 20
0.0
 30
0.0
  3
*Paper_Space
  1

  0
ENDBLK
  5
1D
330
1B
100
AcDbEntity
 67
     1
  8
0
100
AcDbBlockEnd
  0
BLOCK
  5
24
330
23
100
AcDbEntity
  8
0
100
AcDbBlockBegin
  2
*Paper_Space0
 70
     0
 10
0.0
 20
0.0
 30
0.0
  3
*Paper_Space0
  1

  0
ENDBLK
  5
25
330
23
100
AcDbEntity
  8
0
100
AcDbBlockEnd
  0
ENDSEC
  0
SECTION
  2
ENTITIES
  0
LINE
  5
63
330
1F
100
AcDbEntity
  8
0
  6
Continuous
 62
     7
370
    25
100
AcDbLine
 10
-52.0
 20
27.4851790375
 30
0.0
 11
-47.77519988
 21
27.4851790375
 31
0.0
  0
ARC
  5
64
330
1F
100
AcDbEntity
  8
0
  6
Continuous
 62
     7
370
    25
100
AcDbCircle
 10
-52.0
 20
28.9851790375
 30
0.0
 40
1.500000000000007
100
AcDbArc
 50
180.0
 51
270.0
  0
LINE
  5
65
330
1F
100
AcDbEntity
  8
0
  6
Continuous
 62
     7
370
    25
100
AcDbLine
 10
-53.5
 20
34.357622861
 30
0.0
 11
-53.5
 21
28.9851790375
 31
0.0
  0
ARC
  5
66
330
1F
100
AcDbEntity
  8
0
  6
Continuous
 62
     7
370
    25
100
AcDbCircle
 10
-52.0
 20
34.357622861
 30
0.0
 40
1.500000000000071
100
AcDbArc
 50
49.8086493376
 51
180.0
  0
SPLINE
  5
67
330
1F
100
AcDbEntity
  8
0
  6
Continuous
 62
     7
370
    25
100
AcDbSpline
210
0.0
220
0.0
230
1.0
 70
     8
 71
     3
 72
    10
 73
     6
 74
     0
 42
0.00000001
 43
0.00000001
 40
0.6554830607295955
 40
0.6554830607295955
 40
0.6554830607295955
 40
0.6554830607295955
 40
0.7079913319941322
 40
0.7801983659215452
 40
0.7995860240630966
 40
0.7995860240630966
 40
0.7995860240630966
 40
0.7995860240630966
 10
-46.39034005376106
 20
29.56151510410446
 30
0.0
 10
-46.70012876691279
 20
30.3058966695884
 30
0.0
 10
-47.66581257430208
 20
32.08422292686831
 30
0.0
 10
-49.42275715093594
 20
34.0905190855241
 30
0.0
 10
-50.74489244305168
 20
35.26092409661602
 30
0.0
 10
-51.03198643275213
 20
35.50346304778337
 30
0.0
  0
ARC
  5
68
330
1F
100
AcDbEntity
  8
0
  6
Continuous
 62
     7
370
    25
100
AcDbCircle
 10
-47.77519988
 20
28.9851790375
 30
0.0
 40
1.499999999999997
100
AcDbArc
 50
270.0
 51
22.5955764362
  0
LINE
  5
69
330
1F
100
AcDbEntity
  8
0
  6
Continuous
 62
     7
370
    25
100
AcDbLine
 10
-53.5
 20
22.9851790375
 30
0.0
 11
-53.5
 21
17.5228105209
 31
0.0
  0
ARC
  5
6A
330
1F
100
AcDbEntity
  8
0
  6
Continuous
 62
     7
370
    25
100
AcDbCircle
 10
-52.0
 20
22.9851790375
 30
0.0
 40
1.500000000000007
100
AcDbArc
 50
90.0
 51
180.0
  0
LINE
  5
6B
330
1F
100
AcDbEntity
  8
0
  6
Continuous
 62
     7
370
    25
100
AcDbLine
 10
-52.0
 20
24.4851790375
 30
0.0
 11
-47.6996634187
 21
24.4851790375
 31
0.0
  0
ARC
  5
6C
330
1F
100
AcDbEntity
  8
0
  6
Continuous
 62
     7
370
    25
100
AcDbCircle
 10
-47.6996634187
 20
22.9851790375
 30
0.0
 40
1.499999999999986
100
AcDbArc
 50
338.5089139501
 51
90.0
  0
SPLINE
  5
6D
330
1F
100
AcDbEntity
  8
0
  6
Continuous
 62
     7
370
    25
100
AcDbSpline
210
0.0
220
0.0
230
1.0
 70
     8
 71
     3
 72
    10
 73
     6
 74
     0
 42
0.00000001
 43
0.00000001
 40
0.3290999414595357
 40
0.3290999414595357
 40
0.3290999414595357
 40
0.3290999414595357
 40
0.3469561623570668
 40
0.4191631962844798
 40
0.4842729146138079
 40
0.4842729146138079
 40
0.4842729146138079
 40
0.4842729146138079
 10
-51.05485980019047
 20
16.3580315707489
 30
0.0
 10
-50.80062576718788
 20
16.56432548146931
 30
0.0
 10
-49.54753805646494
 20
17.62764040383465
 30
0.0
 10
-47.70057328553233
 20
19.64154978957877
 30
0.0
 10
-46.65787560678917
 20
21.53674569261024
 30
0.0
 10
-46.30395155443539
 20
22.43564433255655
 30
0.0
  0
ARC
  5
6E
330
1F
100
AcDbEntity
  8
0
  6
Continuous
 62
     7
370
    25
100
AcDbCircle
 10
-52.0
 20
17.5228105209
 30
0.0
 40
1.500000000000009
100
AcDbArc
 50
180.0
 51
309.0570186645
  0
LINE
  5
6F
330
1F
100
AcDbEntity
  8
0
  6
Continuous
 62
     7
370
    25
100
AcDbLine
 10
-68.5
 20
14.0830052443
 30
0.0
 11
-68.5
 21
0.3578270712
 31
0.0
  0
ARC
  5
70
330
1F
100
AcDbEntity
  8
0
  6
Continuous
 62
     7
370
    25
100
AcDbCircle
 10
-68.0
 20
14.0830052443
 30
0.0
 40
0.5
100
AcDbArc
 50
15.8266201319
 51
180.0
  0
LINE
  5
71
330
1F
100
AcDbEntity
  8
0
  6
Continuous
 62
     7
370
    25
100
AcDbLine
 10
-67.5189543071
 20
14.2193688806
 30
0.0
 11
-63.6328209705
 21
0.5103790535
 31
0.0
  0
ARC
  5
72
330
1F
100
AcDbEntity
  8
0
  6
Continuous
 62
     7
370
    25
100
AcDbCircle
 10
-65.0759580492
 20
0.1012881444
 30
0.0
 40
1.5
100
AcDbArc
 50
262.4053566314
 51
15.8266201319
  0
LINE
  5
73
330
1F
100
AcDbEntity
  8
0
  6
Continuous
 62
     7
370
    25
100
AcDbLine
 10
-67.1982455801
 20
-1.1290147798
 30
0.0
 11
-65.2742036294
 21
-1.3855537066
 31
0.0
  0
ARC
  5
74
330
1F
100
AcDbEntity
  8
0
  6
Continuous
 62
     7
370
    25
100
AcDbCircle
 10
-67.0
 20
0.3578270712
 30
0.0
 40
1.5
100
AcDbArc
 50
180.0
 51
262.4053566314
  0
SPLINE
  5
75
330
1F
100
AcDbEntity
  8
0
  6
Continuous
 62
     7
370
    25
100
AcDbSpline
210
0.0
220
0.0
230
1.0
 70
     8
 71
     5
 72
    12
 73
     6
 74
     0
 42
0.00000001
 43
0.00000001
 40
0.5366423806335798
 40
0.5366423806335798
 40
0.5366423806335798
 40
0.5366423806335798
 40
0.5366423806335798
 40
0.5366423806335798
 40
0.5371894579365039
 40
0.5371894579365039
 40
0.5371894579365039
 40
0.5371894579365039
 40
0.5371894579365039
 40
0.5371894579365039
 10
-41.7634547567038
 20
24.02684307273812
 30
0.0
 10
-41.76251044098833
 20
24.03334367049051
 30
0.0
 10
-41.76157021263237
 20
24.03984471281215
 30
0.0
 10
-41.76063407247008
 20
24.04634619779694
 30
0.0
 10
-41.75970202133088
 20
24.0528481235381
 30
0.0
 10
-41.7587740600394
 20
24.05935048812822
 30
0.0
  0
LINE
  5
76
330
1F
100
AcDbEntity
  8
0
  6
Continuous
 62
     7
370
    25
100
AcDbLine
 10
-40.0230923886
 20
25.233387949
 30
0.0
 11
-41.7587740536
 21
24.0593504872
 31
0.0
  0
LINE
  5
77
330
1F
100
AcDbEntity
  8
0
  6
Continuous
 62
     7
370
    25
100
AcDbLine
 10
-41.6331990703
 20
27.1087933469
 30
0.0
 11
-40.0230923886
 21
25.233387949
 31
0.0
  0
LINE
  5
78
330
1F
100
AcDbEntity
  8
0
  6
Continuous
 62
     7
370
    25
100
AcDbLine
 10
-40.2361848896
 20
28.6860389399
 30
0.0
 11
-41.6331990703
 21
27.1087933469
 31
0.0
  0
LINE
  5
79
330
1F
100
AcDbEntity
  8
0
  6
Continuous
 62
     7
370
    25
100
AcDbLine
 10
-42.2574560092
 20
30.0992394595
 30
0.0
 11
-40.2361848896
 21
28.6860389399
 31
0.0
  0
LINE
  5
7A
330
1F
100
AcDbEntity
  8
0
  6
Continuous
 62
     7
370
    25
100
AcDbLine
 10
-41.2471450828
 20
31.9421057875
 30
0.0
 11
-42.2574560092
 21
30.0992394595
 31
0.0
  0
LINE
  5
7B
330
1F
100
AcDbEntity
  8
0
  6
Continuous
 62
     7
370
    25
100
AcDbLine
 10
-43.5173465432
 20
32.866726747
 30
0.0
 11
-41.2471450828
 21
31.9421057875
 31
0.0
  0
LINE
  5
7C
330
1F
100
AcDbEntity
  8
0
  6
Continuous
 62
     7
370
    25
100
AcDbLine
 10
-42.8526989275
 20
34.8599775724
 30
0.0
 11
-43.5173465432
 21
32.866726747
 31
0.0
  0
LINE
  5
7D
330
1F
100
AcDbEntity
  8
0
  6
Continuous
 62
     7
370
    25
100
AcDbLine
 10
-45.236481123
 20
35.3609507748
 30
0.0
 11
-42.8526989275
 21
34.8599775724
 31
0.0
  0
LINE
  5
7E
330
1F
100
AcDbEntity
  8
0
  6
Continuous
 62
     7
370
    25
100
AcDbLine
 10
-44.8534638307
 20
37.4287239526
 30
0.0
 11
-45.236481123
 21
35.3609507748
 31
0.0
  0
LINE
  5
7F
330
1F
100
AcDbEntity
  8
0
  6
Continuous
 62
     7
370
    25
100
AcDbLine
 10
-47.2716509693
 20
37.5944971653
 30
0.0
 11
-44.8534638307
 21
37.4287239526
 31
0.0
  0
LINE
  5
80
330
1F
100
AcDbEntity
  8
0
  6
Continuous
 62
     7
370
    25
100
AcDbLine
 10
-47.1115159212
 20
39.6933064166
 30
0.0
 11
-47.2716509693
 21
37.5944971653
 31
0.0
  0
LINE
  5
81
330
1F
100
AcDbEntity
  8
0
  6
Continuous
 62
     7
370
    25
100
AcDbLine
 10
-49.5250327885
 20
39.6001956453
 30
0.0
 11
-47.1115159212
 21
39.6933064166
 31
0.0
  0
LINE
  5
82
330
1F
100
AcDbEntity
  8
0
  6
Continuous
 62
     7
370
    25
100
AcDbLine
 10
-49.5414167135
 20
41.7065508731
 30
0.0
 11
-49.5250327885
 21
39.6001956453
 31
0.0
  0
LINE
  5
83
330
1F
100
AcDbEntity
  8
0
  6
Continuous
 62
     7
370
    25
100
AcDbLine
 10
-51.9326627908
 20
41.4121772011
 30
0.0
 11
-49.5414167135
 21
41.7065508731
 31
0.0
  0
LINE
  5
84
330
1F
100
AcDbEntity
  8
0
  6
Continuous
 62
     7
370
    25
100
AcDbLine
 10
-52.0906539739
 20
43.513725042
 30
0.0
 11
-51.9326627908
 21
41.4121772011
 31
0.0
  0
LINE
  5
85
330
1F
100
AcDbEntity
  8
0
  6
Continuous
 62
     7
370
    25
100
AcDbLine
 10
-54.4524947095
 20
43.0601143724
 30
0.0
 11
-52.0906539739
 21
43.513725042
 31
0.0
  0
LINE
  5
86
330
1F
100
AcDbEntity
  8
0
  6
Continuous
 62
     7
370
    25
100
AcDbLine
 10
-54.7259919313
 20
45.1505079418
 30
0.0
 11
-54.4524947095
 21
43.0601143724
 31
0.0
  0
LINE
  5
87
330
1F
100
AcDbEntity
  8
0
  6
Continuous
 62
     7
370
    25
100
AcDbLine
 10
-57.5
 20
44.4575131106
 30
0.0
 11
-54.7259919313
 21
45.1505079418
 31
0.0
  0
LINE
  5
88
330
1F
100
AcDbEntity
  8
0
  6
Continuous
 62
     7
370
    25
100
AcDbLine
 10
-57.5
 20
44.4575131106
 30
0.0
 11
-72.5
 21
46.4575131106
 31
0.0
  0
LINE
  5
89
330
1F
100
AcDbEntity
  8
0
  6
Continuous
 62
     7
370
    25
100
AcDbLine
 10
-72.5
 20
46.4575131106
 30
0.0
 11
-69.2272727273
 21
34.9124164805
 31
0.0
  0
SPLINE
  5
8A
330
1F
100
AcDbEntity
  8
0
  6
Continuous
 62
     7
370
    25
100
AcDbSpline
210
0.0
220
0.0
230
1.0
 70
     8
 71
     5
 72
    12
 73
     6
 74
     0
 42
0.00000001
 43
0.00000001
 40
0.0
 40
0.0
 40
0.0
 40
0.0
 40
0.0
 40
0.0
 40
0.1376467523054817
 40
0.1376467523054817
 40
0.1376467523054817
 40
0.1376467523054817
 40
0.1376467523054817
 40
0.1376467523054817
 10
-69.22727272727273
 20
34.91241648054589
 30
0.0
 10
-69.03957261049254
 20
34.25027270713495
 30
0.0
 10
-69.29151690379479
 20
33.73754762482649
 30
0.0
 10
-69.90500099911115
 20
33.27834518174401
 30
0.0
 10
-70.79944780803395
 20
32.80649426836624
 30
0.0
 10
-71.89734053451276
 20
32.27860645369035
 30
0.0
  0
LINE
  5
8B
330
1F
100
AcDbEntity
  8
0
  6
Continuous
 62
     7
370
    25
100
AcDbLine
 10
-73.1551153287
 20
32.9852892203
 30
0.0
 11
-71.8973405345
 21
32.2786064537
 31
0.0
  0
LINE
  5
8C
330
1F
100
AcDbEntity
  8
0
  6
Continuous
 62
     7
370
    25
100
AcDbLine
 10
-73.8349830306
 20
31.3645527575
 30
0.0
 11
-73.1551153287
 21
32.9852892203
 31
0.0
  0
SPLINE
  5
8D
330
1F
100
AcDbEntity
  8
0
  6
Continuous
 62
     7
370
    25
100
AcDbSpline
210
0.0
220
0.0
230
1.0
 70
     8
 71
     5
 72
    12
 73
     6
 74
     0
 42
0.00000001
 43
0.00000001
 40
0.1816497689076216
 40
0.1816497689076216
 40
0.1816497689076216
 40
0.1816497689076216
 40
0.1816497689076216
 40
0.1816497689076216
 40
0.1971027225585002
 40
0.1971027225585002
 40
0.1971027225585002
 40
0.1971027225585002
 40
0.1971027225585002
 40
0.1971027225585002
 10
-73.83498303689694
 20
31.36455277059812
 30
0.0
 10
-73.98215948175658
 20
31.2945841603584
 30
0.0
 10
-74.13097719230507
 20
31.22347001621807
 30
0.0
 10
-74.28133005583749
 20
31.15116855296593
 30
0.0
 10
-74.43311272672867
 20
31.07764125184394
 30
0.0
 10
-74.58622072509998
 20
31.00285273674485
 30
0.0
  0
LINE
  5
8E
330
1F
100
AcDbEntity
  8
0
  6
Continuous
 62
     7
370
    25
100
AcDbLine
 10
-75.99440626
 20
31.6695883667
 30
0.0
 11
-74.5862207251
 21
31.0028527367
 31
0.0
  0
LINE
  5
8F
330
1F
100
AcDbEntity
  8
0
  6
Continuous
 62
     7
370
    25
100
AcDbLine
 10
-76.5670014094
 20
29.9841116813
 30
0.0
 11
-75.99440626
 21
31.6695883667
 31
0.0
  0
SPLINE
  5
90
330
1F
100
AcDbEntity
  8
0
  6
Continuous
 62
     7
370
    25
100
AcDbSpline
210
0.0
220
0.0
230
1.0
 70
     8
 71
     5
 72
    12
 73
     6
 74
     0
 42
0.00000001
 43
0.00000001
 40
0.2357397471240991
 40
0.2357397471240991
 40
0.2357397471240991
 40
0.2357397471240991
 40
0.2357397471240991
 40
0.2357397471240991
 40
0.2492935014439709
 40
0.2492935014439709
 40
0.2492935014439709
 40
0.2492935014439709
 40
0.2492935014439709
 40
0.2492935014439709
 10
-76.56700140944528
 20
29.98411168134518
 30
0.0
 10
-76.70953150794615
 20
29.9064556683163
 30
0.0
 10
-76.85249196344853
 20
29.82766911929369
 30
0.0
 10
-76.99581561529212
 20
29.74773824577234
 30
0.0
 10
-77.13943596118676
 20
29.66665093594791
 30
0.0
 10
-77.28328720842902
 20
29.58439669045248
 30
0.0
  0
LINE
  5
91
330
1F
100
AcDbEntity
  8
0
  6
Continuous
 62
     7
370
    25
100
AcDbLine
 10
-78.7431671039
 20
30.1399338944
 30
0.0
 11
-77.2832872084
 21
29.5843966905
 31
0.0
  0
LINE
  5
92
330
1F
100
AcDbEntity
  8
0
  6
Continuous
 62
     7
370
    25
100
AcDbLine
 10
-79.1804257114
 20
28.4196360523
 30
0.0
 11
-78.7431671039
 21
30.1399338944
 31
0.0
  0
SPLINE
  5
93
330
1F
100
AcDbEntity
  8
0
  6
Continuous
 62
     7
370
    25
100
AcDbSpline
210
0.0
220
0.0
230
1.0
 70
     8
 71
     5
 72
    12
 73
     6
 74
     0
 42
0.00000001
 43
0.00000001
 40
0.2849647141658669
 40
0.2849647141658669
 40
0.2849647141658669
 40
0.2849647141658669
 40
0.2849647141658669
 40
0.2849647141658669
 40
0.2980341717448072
 40
0.2980341717448072
 40
0.2980341717448072
 40
0.2980341717448072
 40
0.2980341717448072
 40
0.2980341717448072
 10
-79.18042571716529
 20
28.41963606106196
 30
0.0
 10
-79.31889652183735
 20
28.32816476926584
 30
0.0
 10
-79.45711359320242
 20
28.23556143022743
 30
0.0
 10
-79.59502160904111
 20
28.14182384087167
 30
0.0
 10
-79.7325659771459
 20
28.04695104593659
 30
0.0
 10
-79.86969287801848
 20
27.95094328439873
 30
0.0
  0
LINE
  5
94
330
1F
100
AcDbEntity
  8
0
  6
Continuous
 62
     7
370
    25
100
AcDbLine
 10
-81.3722634447
 20
28.370677742
 30
0.0
 11
-79.869692878
 21
27.9509432844
 31
0.0
  0
LINE
  5
95
330
1F
100
AcDbEntity
  8
0
  6
Continuous
 62
     7
370
    25
100
AcDbLine
 10
-81.6548762061
 20
26.5933558067
 30
0.0
 11
-81.3722634447
 21
28.370677742
 31
0.0
  0
SPLINE
  5
96
330
1F
100
AcDbEntity
  8
0
  6
Continuous
 62
     7
370
    25
100
AcDbSpline
210
0.0
220
0.0
230
1.0
 70
     8
 71
     5
 72
    12
 73
     6
 74
     0
 42
0.00000001
 43
0.00000001
 40
0.3328162436083283
 40
0.3328162436083283
 40
0.3328162436083283
 40
0.3328162436083283
 40
0.3328162436083283
 40
0.3328162436083283
 40
0.3452648637243838
 40
0.3452648637243838
 40
0.3452648637243838
 40
0.3452648637243838
 40
0.3452648637243838
 40
0.3452648637243838
 10
-81.65487621000757
 20
26.59335581148601
 30
0.0
 10
-81.77913529325615
 20
26.49049345134087
 30
0.0
 10
-81.90264141520537
 20
26.38662522841039
 30
0.0
 10
-82.02535188301336
 20
26.28175651430752
 30
0.0
 10
-82.14722473338861
 20
26.17589354626981
 30
0.0
 10
-82.26821876606493
 20
26.0690433851566
 30
0.0
  0
LINE
  5
97
330
1F
100
AcDbEntity
  8
0
  6
Continuous
 62
     7
370
    25
100
AcDbLine
 10
-83.8376514339
 20
26.3275075608
 30
0.0
 11
-82.2682187661
 21
26.0690433852
 31
0.0
  0
LINE
  5
98
330
1F
100
AcDbEntity
  8
0
  6
Continuous
 62
     7
370
    25
100
AcDbLine
 10
-83.9288188816
 20
24.4496680749
 30
0.0
 11
-83.8376514339
 21
26.3275075608
 31
0.0
  0
SPLINE
  5
99
330
1F
100
AcDbEntity
  8
0
  6
Continuous
 62
     7
370
    25
100
AcDbSpline
210
0.0
220
0.0
230
1.0
 70
     8
 71
     5
 72
    12
 73
     6
 74
     0
 42
0.00000001
 43
0.00000001
 40
0.3811340713495674
 40
0.3811340713495674
 40
0.3811340713495674
 40
0.3811340713495674
 40
0.3811340713495674
 40
0.3811340713495674
 40
0.3921852388030705
 40
0.3921852388030705
 40
0.3921852388030705
 40
0.3921852388030705
 40
0.3921852388030705
 40
0.3921852388030705
 10
-83.92881888162093
 20
24.44966807486177
 30
0.0
 10
-84.02548352024758
 20
24.34509164373178
 30
0.0
 10
-84.12119051312489
 20
24.23980069490333
 30
0.0
 10
-84.21591430656382
 20
24.13380324492809
 30
0.0
 10
-84.3096298806809
 20
24.02710774672633
 30
0.0
 10
-84.40231276785497
 20
23.91972306642832
 30
0.0
  0
LINE
  5
9A
330
1F
100
AcDbEntity
  8
0
  6
Continuous
 62
     7
370
    25
100
AcDbLine
 10
-86.0698710252
 20
23.9675710783
 30
0.0
 11
-84.4023127679
 21
23.9197230664
 31
0.0
  0
LINE
  5
9B
330
1F
100
AcDbEntity
  8
0
  6
Continuous
 62
     7
370
    25
100
AcDbLine
 10
-85.8957060594
 20
21.9479745985
 30
0.0
 11
-86.0698710252
 21
23.9675710783
 31
0.0
  0
SPLINE
  5
9C
330
1F
100
AcDbEntity
  8
0
  6
Continuous
 62
     7
370
    25
100
AcDbSpline
210
0.0
220
0.0
230
1.0
 70
     8
 71
     5
 72
    12
 73
     6
 74
     0
 42
0.00000001
 43
0.00000001
 40
0.4310959328523045
 40
0.4310959328523045
 40
0.4310959328523045
 40
0.4310959328523045
 40
0.4310959328523045
 40
0.4310959328523045
 40
0.4395805178964482
 40
0.4395805178964482
 40
0.4395805178964482
 40
0.4395805178964482
 40
0.4395805178964482
 40
0.4395805178964482
 10
-85.8957060466224
 20
21.94797459008862
 30
0.0
 10
-85.95437631129211
 20
21.85863641154724
 30
0.0
 10
-86.01229810166657
 20
21.76895566205331
 30
0.0
 10
-86.06946220841542
 20
21.67893754088153
 30
0.0
 10
-86.1258596366696
 20
21.58858736254457
 30
0.0
 10
-86.18148161094499
 20
21.49791055061531
 30
0.0
  0
LINE
  5
9D
330
1F
100
AcDbEntity
  8
0
  6
Continuous
 62
     7
370
    25
100
AcDbLine
 10
-87.9573458701
 20
21.2472586794
 30
0.0
 11
-86.1814816109
 21
21.4979105506
 31
0.0
  0
LINE
  5
9E
330
1F
100
AcDbEntity
  8
0
  6
Continuous
 62
     7
370
    25
100
AcDbLine
 10
-87.3949208932
 20
19.0890454232
 30
0.0
 11
-87.9573458701
 21
21.2472586794
 31
0.0
  0
SPLINE
  5
9F
330
1F
100
AcDbEntity
  8
0
  6
Continuous
 62
     7
370
    25
100
AcDbSpline
210
0.0
220
0.0
230
1.0
 70
     8
 71
     5
 72
    12
 73
     6
 74
     0
 42
0.00000001
 43
0.00000001
 40
0.4831895131682654
 40
0.4831895131682654
 40
0.4831895131682654
 40
0.4831895131682654
 40
0.4831895131682654
 40
0.4831895131682654
 40
0.48788484409571
 40
0.48788484409571
 40
0.48788484409571
 40
0.48788484409571
 40
0.48788484409571
 40
0.48788484409571
 10
-87.39492089332842
 20
19.08904542328693
 30
0.0
 10
-87.41617732299224
 20
19.035655188474
 30
0.0
 10
-87.43716036294003
 20
18.98219292416201
 30
0.0
 10
-87.45786893018368
 20
18.92865971185326
 30
0.0
 10
-87.47830196468374
 20
18.87505664030055
 30
0.0
 10
-87.49845842960515
 20
18.82138480518658
 30
0.0
  0
LINE
  5
A0
330
1F
100
AcDbEntity
  8
0
  6
Continuous
 62
     7
370
    25
100
AcDbLine
 10
-89.3295821263
 20
18.1526869867
 30
0.0
 11
-87.4984584296
 21
18.8213848052
 31
0.0
  0
LINE
  5
A1
330
1F
100
AcDbEntity
  8
0
  6
Continuous
 62
     7
370
    25
100
AcDbLine
 10
-88.2365452275
 20
15.973156925
 30
0.0
 11
-89.3295821263
 21
18.1526869867
 31
0.0
  0
SPLINE
  5
A2
330
1F
100
AcDbEntity
  8
0
  6
Continuous
 62
     7
370
    25
100
AcDbSpline
210
0.0
220
0.0
230
1.0
 70
     8
 71
     5
 72
    12
 73
     6
 74
     0
 42
0.00000001
 43
0.00000001
 40
0.5366423806336555
 40
0.5366423806336555
 40
0.5366423806336555
 40
0.5366423806336555
 40
0.5366423806336555
 40
0.5366423806336555
 40
0.5371894579368963
 40
0.5371894579368963
 40
0.5371894579368963
 40
0.5371894579368963
 40
0.5371894579368963
 40
0.5371894579368963
 10
-88.23654524329682
 20
15.97315692725738
 30
0.0
 10
-88.23748955901284
 20
15.96665632950122
 30
0.0
 10
-88.23842978736934
 20
15.96015528717582
 30
0.0
 10
-88.23936592753216
 20
15.95365380218727
 30
0.0
 10
-88.24029797867189
 20
15.94715187644234
 30
0.0
 10
-88.2412259399639
 20
15.94064951184844
 30
0.0
  0
LINE
  5
A3
330
1F
100
AcDbEntity
  8
0
  6
Continuous
 62
     7
370
    25
100
AcDbLine
 10
-89.9769076114
 20
14.766612051
 30
0.0
 11
-88.2412259464
 21
15.9406495128
 31
0.0
  0
LINE
  5
A4
330
1F
100
AcDbEntity
  8
0
  6
Continuous
 62
     7
370
    25
100
AcDbLine
 10
-88.3668009297
 20
12.8912066531
 30
0.0
 11
-89.9769076114
 21
14.766612051
 31
0.0
  0
LINE
  5
A5
330
1F
100
AcDbEntity
  8
0
  6
Continuous
 62
     7
370
    25
100
AcDbLine
 10
-89.7638151104
 20
11.3139610601
 30
0.0
 11
-88.3668009297
 21
12.8912066531
 31
0.0
  0
LINE
  5
A6
330
1F
100
AcDbEntity
  8
0
  6
Continuous
 62
     7
370
    25
100
AcDbLine
 10
-87.7425439908
 20
9.9007605405
 30
0.0
 11
-89.7638151104
 21
11.3139610601
 31
0.0
  0
LINE
  5
A7
330
1F
100
AcDbEntity
  8
0
  6
Continuous
 62
     7
370
    25
100
AcDbLine
 10
-88.7528549172
 20
8.0578942125
 30
0.0
 11
-87.7425439908
 21
9.9007605405
 31
0.0
  0
LINE
  5
A8
330
1F
100
AcDbEntity
  8
0
  6
Continuous
 62
     7
370
    25
100
AcDbLine
 10
-86.4826534568
 20
7.133273253
 30
0.0
 11
-88.7528549172
 21
8.0578942125
 31
0.0
  0
LINE
  5
A9
330
1F
100
AcDbEntity
  8
0
  6
Continuous
 62
     7
370
    25
100
AcDbLine
 10
-87.1473010725
 20
5.1400224276
 30
0.0
 11
-86.4826534568
 21
7.133273253
 31
0.0
  0
LINE
  5
AA
330
1F
100
AcDbEntity
  8
0
  6
Continuous
 62
     7
370
    25
100
AcDbLine
 10
-84.763518877
 20
4.6390492252
 30
0.0
 11
-87.1473010725
 21
5.1400224276
 31
0.0
  0
LINE
  5
AB
330
1F
100
AcDbEntity
  8
0
  6
Continuous
 62
     7
370
    25
100
AcDbLine
 10
-85.1465361693
 20
2.5712760474
 30
0.0
 11
-84.763518877
 21
4.6390492252
 31
0.0
  0
LINE
  5
AC
330
1F
100
AcDbEntity
  8
0
  6
Continuous
 62
     7
370
    25
100
AcDbLine
 10
-82.7283490307
 20
2.4055028347
 30
0.0
 11
-85.1465361693
 21
2.5712760474
 31
0.0
  0
LINE
  5
AD
330
1F
100
AcDbEntity
  8
0
  6
Continuous
 62
     7
370
    25
100
AcDbLine
 10
-82.8884840788
 20
0.3066935834
 30
0.0
 11
-82.7283490307
 21
2.4055028347
 31
0.0
  0
LINE
  5
AE
330
1F
100
AcDbEntity
  8
0
  6
Continuous
 62
     7
370
    25
100
AcDbLine
 10
-80.4749672115
 20
0.3998043547
 30
0.0
 11
-82.8884840788
 21
0.3066935834
 31
0.0
  0
LINE
  5
AF
330
1F
100
AcDbEntity
  8
0
  6
Continuous
 62
     7
370
    25
100
AcDbLine
 10
-80.4585832865
 20
-1.7065508731
 30
0.0
 11
-80.4749672115
 21
0.3998043547
 31
0.0
  0
LINE
  5
B0
330
1F
100
AcDbEntity
  8
0
  6
Continuous
 62
     7
370
    25
100
AcDbLine
 10
-78.0673372092
 20
-1.4121772011
 30
0.0
 11
-80.4585832865
 21
-1.7065508731
 31
0.0
  0
LINE
  5
B1
330
1F
100
AcDbEntity
  8
0
  6
Continuous
 62
     7
370
    25
100
AcDbLine
 10
-77.9093460261
 20
-3.513725042
 30
0.0
 11
-78.0673372092
 21
-1.4121772011
 31
0.0
  0
LINE
  5
B2
330
1F
100
AcDbEntity
  8
0
  6
Continuous
 62
     7
370
    25
100
AcDbLine
 10
-75.5475052905
 20
-3.0601143724
 30
0.0
 11
-77.9093460261
 21
-3.513725042
 31
0.0
  0
LINE
  5
B3
330
1F
100
AcDbEntity
  8
0
  6
Continuous
 62
     7
370
    25
100
AcDbLine
 10
-75.2740080687
 20
-5.1505079418
 30
0.0
 11
-75.5475052905
 21
-3.0601143724
 31
0.0
  0
LINE
  5
B4
330
1F
100
AcDbEntity
  8
0
  6
Continuous
 62
     7
370
    25
100
AcDbLine
 10
-72.5
 20
-4.4575131106
 30
0.0
 11
-75.2740080687
 21
-5.1505079418
 31
0.0
  0
LINE
  5
B5
330
1F
100
AcDbEntity
  8
0
  6
Continuous
 62
     7
370
    25
100
AcDbLine
 10
-72.5
 20
-4.4575131106
 30
0.0
 11
-57.5
 21
-6.4575131106
 31
0.0
  0
LINE
  5
B6
330
1F
100
AcDbEntity
  8
0
  6
Continuous
 62
     7
370
    25
100
AcDbLine
 10
-57.5
 20
-6.4575131106
 30
0.0
 11
-60.7727272727
 21
5.0875835195
 31
0.0
  0
SPLINE
  5
B7
330
1F
100
AcDbEntity
  8
0
  6
Continuous
 62
     7
370
    25
100
AcDbSpline
210
0.0
220
0.0
230
1.0
 70
     8
 71
     5
 72
    12
 73
     6
 74
     0
 42
0.00000001
 43
0.00000001
 40
0.0
 40
0.0
 40
0.0
 40
0.0
 40
0.0
 40
0.0
 40
0.1376467521841171
 40
0.1376467521841171
 40
0.1376467521841171
 40
0.1376467521841171
 40
0.1376467521841171
 40
0.1376467521841171
 10
-60.77272727272728
 20
5.087583519454118
 30
0.0
 10
-60.96042738934199
 20
5.749727292281226
 30
0.0
 10
-60.70848309664952
 20
6.262452374269363
 30
0.0
 10
-60.09499900251161
 20
6.721654817041346
 30
0.0
 10
-59.20055219512063
 20
7.193505729969617
 30
0.0
 10
-58.10265947032736
 20
7.721393543982433
 30
0.0
  0
LINE
  5
B8
330
1F
100
AcDbEntity
  8
0
  6
Continuous
 62
     7
370
    25
100
AcDbLine
 10
-56.8448846713
 20
7.0147107797
 30
0.0
 11
-58.1026594703
 21
7.721393544
 31
0.0
  0
LINE
  5
B9
330
1F
100
AcDbEntity
  8
0
  6
Continuous
 62
     7
370
    25
100
AcDbLine
 10
-56.1650169694
 20
8.6354472425
 30
0.0
 11
-56.8448846713
 21
7.0147107797
 31
0.0
  0
SPLINE
  5
BA
330
1F
100
AcDbEntity
  8
0
  6
Continuous
 62
     7
370
    25
100
AcDbSpline
210
0.0
220
0.0
230
1.0
 70
     8
 71
     5
 72
    12
 73
     6
 74
     0
 42
0.00000001
 43
0.00000001
 40
0.1816497689074296
 40
0.1816497689074296
 40
0.1816497689074296
 40
0.1816497689074296
 40
0.1816497689074296
 40
0.1816497689074296
 40
0.1971027225986891
 40
0.1971027225986891
 40
0.1971027225986891
 40
0.1971027225986891
 40
0.1971027225986891
 40
0.1971027225986891
 10
-56.1650169631122
 20
8.63544722939753
 30
0.0
 10
-56.01784051786804
 20
8.705415839820027
 30
0.0
 10
-55.86902280692647
 20
8.776529984149127
 30
0.0
 10
-55.7186699429932
 20
8.848831447596341
 30
0.0
 10
-55.56688727169423
 20
8.92235874892002
 30
0.0
 10
-55.41377927290904
 20
8.99714726422766
 30
0.0
  0
LINE
  5
BB
330
1F
100
AcDbEntity
  8
0
  6
Continuous
 62
     7
370
    25
100
AcDbLine
 10
-54.00559374
 20
8.3304116333
 30
0.0
 11
-55.4137792729
 21
8.9971472642
 31
0.0
  0
LINE
  5
BC
330
1F
100
AcDbEntity
  8
0
  6
Continuous
 62
     7
370
    25
100
AcDbLine
 10
-53.4329985906
 20
10.0158883187
 30
0.0
 11
-54.00559374
 21
8.3304116333
 31
0.0
  0
SPLINE
  5
BD
330
1F
100
AcDbEntity
  8
0
  6
Continuous
 62
     7
370
    25
100
AcDbSpline
210
0.0
220
0.0
230
1.0
 70
     8
 71
     5
 72
    12
 73
     6
 74
     0
 42
0.00000001
 43
0.00000001
 40
0.2357397471240983
 40
0.2357397471240983
 40
0.2357397471240983
 40
0.2357397471240983
 40
0.2357397471240983
 40
0.2357397471240983
 40
0.2492935014962239
 40
0.2492935014962239
 40
0.2492935014962239
 40
0.2492935014962239
 40
0.2492935014962239
 40
0.2492935014962239
 10
-53.4329985905548
 20
10.0158883186548
 30
0.0
 10
-53.29046849150443
 20
10.09354433198306
 30
0.0
 10
-53.14750803544923
 20
10.17233088131378
 30
0.0
 10
-53.00418438305028
 20
10.25226175515211
 30
0.0
 10
-52.8605640365985
 20
10.33334906530253
 30
0.0
 10
-52.71671278879809
 20
10.41560331113308
 30
0.0
  0
LINE
  5
BE
330
1F
100
AcDbEntity
  8
0
  6
Continuous
 62
     7
370
    25
100
AcDbLine
 10
-51.2568328961
 20
9.8600661056
 30
0.0
 11
-52.7167127888
 21
10.4156033111
 31
0.0
  0
LINE
  5
BF
330
1F
100
AcDbEntity
  8
0
  6
Continuous
 62
     7
370
    25
100
AcDbLine
 10
-50.8195742921
 20
11.5803639338
 30
0.0
 11
-51.2568328961
 21
9.8600661056
 31
0.0
  0
SPLINE
  5
C0
330
1F
100
AcDbEntity
  8
0
  6
Continuous
 62
     7
370
    25
100
AcDbSpline
210
0.0
220
0.0
230
1.0
 70
     8
 71
     5
 72
    12
 73
     6
 74
     0
 42
0.00000001
 43
0.00000001
 40
0.2849647139989533
 40
0.2849647139989533
 40
0.2849647139989533
 40
0.2849647139989533
 40
0.2849647139989533
 40
0.2849647139989533
 40
0.2980341715592376
 40
0.2980341715592376
 40
0.2980341715592376
 40
0.2980341715592376
 40
0.2980341715592376
 40
0.2980341715592376
 10
-50.81957429167695
 20
11.58036393309701
 30
0.0
 10
-50.68110348718961
 20
11.67183522470474
 30
0.0
 10
-50.54288641600639
 20
11.76443856355143
 30
0.0
 10
-50.40497840034649
 20
11.85817615271218
 30
0.0
 10
-50.26743403241723
 20
11.95304894744899
 30
0.0
 10
-50.13030713171668
 20
12.04905670878534
 30
0.0
  0
LINE
  5
C1
330
1F
100
AcDbEntity
  8
0
  6
Continuous
 62
     7
370
    25
100
AcDbLine
 10
-48.6277365553
 20
11.629322258
 30
0.0
 11
-50.1303071317
 21
12.0490567088
 31
0.0
  0
LINE
  5
C2
330
1F
100
AcDbEntity
  8
0
  6
Continuous
 62
     7
370
    25
100
AcDbLine
 10
-48.3451237954
 20
13.406644184
 30
0.0
 11
-48.6277365553
 21
11.629322258
 31
0.0
  0
SPLINE
  5
C3
330
1F
100
AcDbEntity
  8
0
  6
Continuous
 62
     7
370
    25
100
AcDbSpline
210
0.0
220
0.0
230
1.0
 70
     8
 71
     5
 72
    12
 73
     6
 74
     0
 42
0.00000001
 43
0.00000001
 40
0.3328162434996827
 40
0.3328162434996827
 40
0.3328162434996827
 40
0.3328162434996827
 40
0.3328162434996827
 40
0.3328162434996827
 40
0.3452648637419016
 40
0.3452648637419016
 40
0.3452648637419016
 40
0.3452648637419016
 40
0.3452648637419016
 40
0.3452648637419016
 10
-48.34512379541478
 20
13.40664418402531
 30
0.0
 10
-48.22086471088058
 20
13.50950654517782
 30
0.0
 10
-48.09735858765988
 20
13.6133747691362
 30
0.0
 10
-47.97464811859589
 20
13.71824348428734
 30
0.0
 10
-47.85277526698135
 20
13.82410645339353
 30
0.0
 10
-47.73178123308372
 20
13.9309566155952
 30
0.0
  0
LINE
  5
C4
330
1F
100
AcDbEntity
  8
0
  6
Continuous
 62
     7
370
    25
100
AcDbLine
 10
-46.1623485661
 20
13.6724924392
 30
0.0
 11
-47.7317812331
 21
13.9309566156
 31
0.0
  0
LINE
  5
C5
330
1F
100
AcDbEntity
  8
0
  6
Continuous
 62
     7
370
    25
100
AcDbLine
 10
-46.0711811184
 20
15.5503319251
 30
0.0
 11
-46.1623485661
 21
13.6724924392
 31
0.0
  0
SPLINE
  5
C6
330
1F
100
AcDbEntity
  8
0
  6
Continuous
 62
     7
370
    25
100
AcDbSpline
210
0.0
220
0.0
230
1.0
 70
     8
 71
     5
 72
    12
 73
     6
 74
     0
 42
0.00000001
 43
0.00000001
 40
0.3811340713495795
 40
0.3811340713495795
 40
0.3811340713495795
 40
0.3811340713495795
 40
0.3811340713495795
 40
0.3811340713495795
 40
0.3921852387061563
 40
0.3921852387061563
 40
0.3921852387061563
 40
0.3921852387061563
 40
0.3921852387061563
 40
0.3921852387061563
 10
-46.07118111837855
 20
15.5503319251388
 30
0.0
 10
-45.97451648059972
 20
15.65490835535159
 30
0.0
 10
-45.87880948855342
 20
15.76019930325031
 30
0.0
 10
-45.78408569592804
 20
15.86619675228349
 30
0.0
 10
-45.69037012260638
 20
15.97289224953109
 30
0.0
 10
-45.59768723620899
 20
16.08027692886309
 30
0.0
  0
LINE
  5
C7
330
1F
100
AcDbEntity
  8
0
  6
Continuous
 62
     7
370
    25
100
AcDbLine
 10
-43.9301289748
 20
16.0324289217
 30
0.0
 11
-45.5976872362
 21
16.0802769289
 31
0.0
  0
LINE
  5
C8
330
1F
100
AcDbEntity
  8
0
  6
Continuous
 62
     7
370
    25
100
AcDbLine
 10
-44.1042939406
 20
18.0520254015
 30
0.0
 11
-43.9301289748
 21
16.0324289217
 31
0.0
  0
SPLINE
  5
C9
330
1F
100
AcDbEntity
  8
0
  6
Continuous
 62
     7
370
    25
100
AcDbSpline
210
0.0
220
0.0
230
1.0
 70
     8
 71
     5
 72
    12
 73
     6
 74
     0
 42
0.00000001
 43
0.00000001
 40
0.4310959328524313
 40
0.4310959328524313
 40
0.4310959328524313
 40
0.4310959328524313
 40
0.4310959328524313
 40
0.4310959328524313
 40
0.4395805179207734
 40
0.4395805179207734
 40
0.4395805179207734
 40
0.4395805179207734
 40
0.4395805179207734
 40
0.4395805179207734
 10
-44.1042939533732
 20
18.05202540991805
 30
0.0
 10
-44.04562368853619
 20
18.14136358871425
 30
0.0
 10
-43.9877018979987
 20
18.23104433846495
 30
0.0
 10
-43.93053779109121
 20
18.3210624598954
 30
0.0
 10
-43.87414036268278
 20
18.41141263849291
 30
0.0
 10
-43.81851838825766
 20
18.50208945068453
 30
0.0
  0
LINE
  5
CA
330
1F
100
AcDbEntity
  8
0
  6
Continuous
 62
     7
370
    25
100
AcDbLine
 10
-42.0426541299
 20
18.7527413206
 30
0.0
 11
-43.8185183883
 21
18.5020894507
 31
0.0
  0
LINE
  5
CB
330
1F
100
AcDbEntity
  8
0
  6
Continuous
 62
     7
370
    25
100
AcDbLine
 10
-42.6050791069
 20
20.9109545771
 30
0.0
 11
-42.0426541299
 21
18.7527413206
 31
0.0
  0
SPLINE
  5
CC
330
1F
100
AcDbEntity
  8
0
  6
Continuous
 62
     7
370
    25
100
AcDbSpline
210
0.0
220
0.0
230
1.0
 70
     8
 71
     5
 72
    12
 73
     6
 74
     0
 42
0.00000001
 43
0.00000001
 40
0.4831895131726385
 40
0.4831895131726385
 40
0.4831895131726385
 40
0.4831895131726385
 40
0.4831895131726385
 40
0.4831895131726385
 40
0.4878848442551287
 40
0.4878848442551287
 40
0.4878848442551287
 40
0.4878848442551287
 40
0.4878848442551287
 40
0.4878848442551287
 10
-42.60507910657261
 20
20.91095457696172
 30
0.0
 10
-42.58382267620789
 20
20.96434481353792
 30
0.0
 10
-42.56283963557726
 20
21.01780707961794
 30
0.0
 10
-42.54213106766895
 20
21.07134029369938
 30
0.0
 10
-42.52169803252247
 20
21.12494336702931
 30
0.0
 10
-42.50154156697304
 20
21.17861520392492
 30
0.0
  0
LINE
  5
CD
330
1F
100
AcDbEntity
  8
0
  6
Continuous
 62
     7
370
    25
100
AcDbLine
 10
-40.6704178737
 20
21.8473130133
 30
0.0
 11
-42.501541567
 21
21.1786152039
 31
0.0
  0
LINE
  5
CE
330
1F
100
AcDbEntity
  8
0
  6
Continuous
 62
     7
370
    25
100
AcDbLine
 10
-41.7634547725
 20
24.026843075
 30
0.0
 11
-40.6704178737
 21
21.8473130133
 31
0.0
  0
CIRCLE
  5
CF
330
1F
100
AcDbEntity
  8
0
  6
Continuous
 62
     7
370
    25
100
AcDbCircle
 10
-65.0
 20
20.0
 30
0.0
 40
2.649999999999999
  0
LINE
  5
D0
330
1F
100
AcDbEntity
  8
0
  6
Continuous
 62
     7
370
    25
100
AcDbLine
 10
-82.3003365813
 20
15.5148209625
 30
0.0
 11
-78.0
 21
15.5148209625
 31
0.0
  0
ARC
  5
D1
330
1F
100
AcDbEntity
  8
0
  6
Continuous
 62
     7
370
    25
100
AcDbCircle
 10
-82.3003365813
 20
17.0148209625
 30
0.0
 40
1.500000000000043
100
AcDbArc
 50
158.5089139501
 51
270.0
  0
SPLINE
  5
D2
330
1F
100
AcDbEntity
  8
0
  6
Continuous
 62
     7
370
    25
100
AcDbSpline
210
0.0
220
0.0
230
1.0
 70
     8
 71
     3
 72
    10
 73
     6
 74
     0
 42
0.00000001
 43
0.00000001
 40
0.6428816136648042
 40
0.6428816136648042
 40
0.6428816136648042
 40
0.6428816136648042
 40
0.7079913319941267
 40
0.7801983659215385
 40
0.7980545868190679
 40
0.7980545868190679
 40
0.7980545868190679
 40
0.7980545868190679
 10
-83.69604844556441
 20
17.56435566744371
 30
0.0
 10
-83.34212439321067
 20
18.46325430738993
 30
0.0
 10
-82.29942671446759
 20
20.35845021042131
 30
0.0
 10
-80.45246194353506
 20
22.37235959616529
 30
0.0
 10
-79.19937423281215
 20
23.43567451853059
 30
0.0
 10
-78.94514019980959
 20
23.64196842925098
 30
0.0
  0
ARC
  5
D3
330
1F
100
AcDbEntity
  8
0
  6
Continuous
 62
     7
370
    25
100
AcDbCircle
 10
-78.0
 20
22.4771894791
 30
0.0
 40
1.500000000000028
100
AcDbArc
 50
0.0
 51
129.0570186645
  0
LINE
  5
D4
330
1F
100
AcDbEntity
  8
0
  6
Continuous
 62
     7
370
    25
100
AcDbLine
 10
-76.5
 20
22.4771894791
 30
0.0
 11
-76.5
 21
17.0148209625
 31
0.0
  0
ARC
  5
D5
330
1F
100
AcDbEntity
  8
0
  6
Continuous
 62
     7
370
    25
100
AcDbCircle
 10
-78.0
 20
17.0148209625
 30
0.0
 40
1.500000000000004
100
AcDbArc
 50
270.0
 51
0.0
  0
LINE
  5
D6
330
1F
100
AcDbEntity
  8
0
  6
Continuous
 62
     7
370
    25
100
AcDbLine
 10
-82.22480012
 20
12.5148209625
 30
0.0
 11
-78.0
 21
12.5148209625
 31
0.0
  0
ARC
  5
D7
330
1F
100
AcDbEntity
  8
0
  6
Continuous
 62
     7
370
    25
100
AcDbCircle
 10
-78.0
 20
11.0148209625
 30
0.0
 40
1.5
100
AcDbArc
 50
0.0
 51
90.0
  0
LINE
  5
D8
330
1F
100
AcDbEntity
  8
0
  6
Continuous
 62
     7
370
    25
100
AcDbLine
 10
-76.5
 20
11.0148209625
 30
0.0
 11
-76.5
 21
5.642377139
 31
0.0
  0
ARC
  5
D9
330
1F
100
AcDbEntity
  8
0
  6
Continuous
 62
     7
370
    25
100
AcDbCircle
 10
-78.0
 20
5.642377139
 30
0.0
 40
1.500000000000028
100
AcDbArc
 50
229.8086493376
 51
0.0
  0
SPLINE
  5
DA
330
1F
100
AcDbEntity
  8
0
  6
Continuous
 62
     7
370
    25
100
AcDbSpline
210
0.0
220
0.0
230
1.0
 70
     8
 71
     3
 72
    10
 73
     6
 74
     0
 42
0.00000001
 43
0.00000001
 40
0.3275685042155148
 40
0.3275685042155148
 40
0.3275685042155148
 40
0.3275685042155148
 40
0.3469561623570672
 40
0.4191631962844791
 40
0.4716714675490128
 40
0.4716714675490128
 40
0.4716714675490128
 40
0.4716714675490128
 10
-78.96801356724784
 20
4.496536952216887
 30
0.0
 10
-79.25510755694832
 20
4.739075903384254
 30
0.0
 10
-80.57724284906405
 20
5.909480914476184
 30
0.0
 10
-82.33418742569782
 20
7.915777073131956
 30
0.0
 10
-83.29987123308709
 20
9.69410333041179
 30
0.0
 10
-83.6096599462388
 20
10.43848489589568
 30
0.0
  0
ARC
  5
DB
330
1F
100
AcDbEntity
  8
0
  6
Continuous
 62
     7
370
    25
100
AcDbCircle
 10
-82.22480012
 20
11.0148209625
 30
0.0
 40
1.49999999999999
100
AcDbArc
 50
90.0
 51
202.5955764362
  0
LINE
  5
DC
330
1F
100
AcDbEntity
  8
0
  6
Continuous
 62
     7
370
    25
100
AcDbLine
 10
-62.8017544199
 20
41.1290147798
 30
0.0
 11
-64.7257963706
 21
41.3855537066
 31
0.0
  0
ARC
  5
DD
330
1F
100
AcDbEntity
  8
0
  6
Continuous
 62
     7
370
    25
100
AcDbCircle
 10
-63.0
 20
39.6421729288
 30
0.0
 40
1.500000000000006
100
AcDbArc
 50
0.0
 51
82.4053566314
  0
LINE
  5
DE
330
1F
100
AcDbEntity
  8
0
  6
Continuous
 62
     7
370
    25
100
AcDbLine
 10
-61.5
 20
39.6421729288
 30
0.0
 11
-61.5
 21
25.9169947557
 31
0.0
  0
ARC
  5
DF
330
1F
100
AcDbEntity
  8
0
  6
Continuous
 62
     7
370
    25
100
AcDbCircle
 10
-62.0
 20
25.9169947557
 30
0.0
 40
0.5000000000000053
100
AcDbArc
 50
195.8266201319
 51
0.0
  0
LINE
  5
E0
330
1F
100
AcDbEntity
  8
0
  6
Continuous
 62
     7
370
    25
100
AcDbLine
 10
-62.4810456929
 20
25.7806311194
 30
0.0
 11
-66.3671790295
 21
39.4896209465
 31
0.0
  0
ARC
  5
E1
330
1F
100
AcDbEntity
  8
0
  6
Continuous
 62
     7
370
    25
100
AcDbCircle
 10
-64.9240419508
 20
39.8987118556
 30
0.0
 40
1.500000000000003
100
AcDbArc
 50
82.4053566314
 51
195.8266201319
  0
MTEXT
  5
E3
330
1F
100
AcDbEntity
  8
0
  6
Continuous
 62
     7
100
AcDbMText
 10
-89.9769076114
 20
-7.4770795023
 30
0.0
 40
4.83362
 41
0.0
 71
     1
 72
     1
  1
SOLIDWORKS Educational Product.
  7
SLDTEXTSTYLE0
 73
     1
 44
1.0
  0
MTEXT
  5
E4
330
1F
100
AcDbEntity
  8
0
  6
Continuous
 62
     7
100
AcDbMText
 10
-89.9769076114
 20
-14.7275095023
 30
0.0
 40
4.83362
 41
0.0
 71
     1
 72
     1
  1
For Instructional Use Only.
  7
SLDTEXTSTYLE0
 73
     1
 44
1.0
  0
ENDSEC
  0
SECTION
  2
OBJECTS
  0
DICTIONARY
  5
C
330
0
100
AcDbDictionary
281
     1
  3
ACAD_GROUP
350
D
  3
ACAD_LAYOUT
350
1A
  3
ACAD_MLINESTYLE
350
17
  3
ACAD_PLOTSETTINGS
350
19
  3
ACAD_PLOTSTYLENAME
350
E
  3
ACAD_SCALELIST
350
47
  3
DWGPROPS
350
E5
  0
DICTIONARY
  5
D
102
{ACAD_REACTORS
330
C
102
}
330
C
100
AcDbDictionary
281
     1
  0
DICTIONARY
  5
1A
102
{ACAD_REACTORS
330
C
102
}
330
C
100
AcDbDictionary
281
     1
  3
Layout1
350
1E
  3
Layout2
350
26
  3
Model
350
22
  0
DICTIONARY
  5
17
102
{ACAD_REACTORS
330
C
102
}
330
C
100
AcDbDictionary
281
     1
  3
Standard
350
18
  0
DICTIONARY
  5
19
102
{ACAD_REACTORS
330
C
102
}
330
C
100
AcDbDictionary
281
     1
  0
ACDBDICTIONARYWDFLT
  5
E
102
{ACAD_REACTORS
330
C
102
}
330
C
100
AcDbDictionary
281
     1
  3
Normal
350
F
100
AcDbDictionaryWithDefault
340
F
  0
DICTIONARY
  5
47
102
{ACAD_REACTORS
330
C
102
}
330
C
100
AcDbDictionary
281
     1
  3
A0
350
48
  3
A1
350
49
  3
A2
350
4A
  3
A3
350
4B
  3
A4
350
4C
  3
A5
350
4D
  3
A6
350
4E
  3
A7
350
4F
  3
A8
350
50
  3
A9
350
51
  3
B0
350
52
  3
B1
350
53
  3
B2
350
54
  3
B3
350
55
  3
B4
350
56
  3
B5
350
57
  3
B6
350
58
  0
XRECORD
  5
E5
102
{ACAD_REACTORS
330
C
102
}
330
C
100
AcDbXrecord
280
     1
  1
DWGPROPS COOKIE
  2

  3

  4

  6

  7

  8
imsim
  9

300
=
301
=
302
=
303
=
304
=
305
=
306
=
307
=
308
=
309
=
 40
0.0
 41
2460721.009636343
 42
2460721.009663588
  1

 90
        0
  0
LAYOUT
  5
1E
102
{ACAD_REACTORS
330
1A
102
}
330
1A
100
AcDbPlotSettings
  1

  2
none_device
  4

  6

 40
0.0
 41
0.0
 42
0.0
 43
0.0
 44
0.0
 45
0.0
 46
0.0
 47
0.0
 48
0.0
 49
0.0
140
0.0
141
0.0
142
1.0
143
1.0
 70
   688
 72
     1
 73
     0
 74
     5
  7

 75
    16
147
1.0
148
0.0
149
0.0
100
AcDbLayout
  1
Layout1
 70
     1
 71
     1
 10
0.0
 20
0.0
 11
420.0
 21
297.0
 12
0.0
 22
0.0
 32
0.0
 14
1.0000000000E+20
 24
1.0000000000E+20
 34
1.0000000000E+20
 15
-1.0000000000E+20
 25
-1.0000000000E+20
 35
-1.0000000000E+20
146
0.0
 13
0.0
 23
0.0
 33
0.0
 16
1.0
 26
0.0
 36
0.0
 17
0.0
 27
1.0
 37
0.0
 76
     0
330
1B
  0
LAYOUT
  5
26
102
{ACAD_REACTORS
330
1A
102
}
330
1A
100
AcDbPlotSettings
  1

  2
none_device
  4

  6

 40
0.0
 41
0.0
 42
0.0
 43
0.0
 44
0.0
 45
0.0
 46
0.0
 47
0.0
 48
0.0
 49
0.0
140
0.0
141
0.0
142
1.0
143
1.0
 70
   688
 72
     1
 73
     0
 74
     5
  7

 75
    16
147
1.0
148
0.0
149
0.0
100
AcDbLayout
  1
Layout2
 70
     1
 71
     2
 10
0.0
 20
0.0
 11
0.0
 21
0.0
 12
0.0
 22
0.0
 32
0.0
 14
0.0
 24
0.0
 34
0.0
 15
0.0
 25
0.0
 35
0.0
146
0.0
 13
0.0
 23
0.0
 33
0.0
 16
1.0
 26
0.0
 36
0.0
 17
0.0
 27
1.0
 37
0.0
 76
     0
330
23
  0
LAYOUT
  5
22
102
{ACAD_REACTORS
330
1A
102
}
330
1A
100
AcDbPlotSettings
  1

  2
none_device
  4
ANSI_A_(11.00_x_8.50_Inches)
  6

 40
6.35
 41
19.05
 42
6.35000508
 43
19.05000254
 44
279.4
 45
215.9
 46
395.9061368428
 47
8.1134943045
 48
0.0
 49
0.0
140
0.0
141
0.0
142
0.159028552
143
1.0
 70
  1696
 72
     0
 73
     0
 74
     0
  7

 75
     0
147
0.0179189148
148
-1300.4909072572
149
0.0
100
AcDbLayout
  1
Model
 70
     1
 71
     0
 10
0.0
 20
0.0
 11
420.0
 21
297.0
 12
0.0
 22
0.0
 32
0.0
 14
-89.9769076114
 24
-6.4575131106
 34
0.0
 15
-40.0230923886
 25
46.4575131106
 35
0.0
146
0.0
 13
0.0
 23
0.0
 33
0.0
 16
1.0
 26
0.0
 36
0.0
 17
0.0
 27
1.0
 37
0.0
 76
     0
330
1F
331
29
  0
MLINESTYLE
  5
18
102
{ACAD_REACTORS
330
17
102
}
330
17
100
AcDbMlineStyle
  2
Standard
 70
     0
  3

 62
   256
 51
90.0
 52
90.0
 71
     2
 49
0.5
 62
   256
  6
BYLAYER
 49
-0.5
 62
   256
  6
BYLAYER
  0
ACDBPLACEHOLDER
  5
F
102
{ACAD_REACTORS
330
E
102
}
330
E
  0
SCALE
  5
48
102
{ACAD_REACTORS
330
47
102
}
330
47
100
AcDbScale
 70
     0
300
1:1
140
1.0
141
1.0
290
     1
  0
SCALE
  5
49
102
{ACAD_REACTORS
330
47
102
}
330
47
100
AcDbScale
 70
     0
300
1:2
140
1.0
141
2.0
290
     0
  0
SCALE
  5
4A
102
{ACAD_REACTORS
330
47
102
}
330
47
100
AcDbScale
 70
     0
300
1:4
140
1.0
141
4.0
290
     0
  0
SCALE
  5
4B
102
{ACAD_REACTORS
330
47
102
}
330
47
100
AcDbScale
 70
     0
300
1:5
140
1.0
141
5.0
290
     0
  0
SCALE
  5
4C
102
{ACAD_REACTORS
330
47
102
}
330
47
100
AcDbScale
 70
     0
300
1:8
140
1.0
141
8.0
290
     0
  0
SCALE
  5
4D
102
{ACAD_REACTORS
330
47
102
}
330
47
100
AcDbScale
 70
     0
300
1:10
140
1.0
141
10.0
290
     0
  0
SCALE
  5
4E
102
{ACAD_REACTORS
330
47
102
}
330
47
100
AcDbScale
 70
     0
300
1:16
140
1.0
141
16.0
290
     0
  0
SCALE
  5
4F
102
{ACAD_REACTORS
330
47
102
}
330
47
100
AcDbScale
 70
     0
300
1:20
140
1.0
141
20.0
290
     0
  0
SCALE
  5
50
102
{ACAD_REACTORS
330
47
102
}
330
47
100
AcDbScale
 70
     0
300
1:30
140
1.0
141
30.0
290
     0
  0
SCALE
  5
51
102
{ACAD_REACTORS
330
47
102
}
330
47
100
AcDbScale
 70
     0
300
1:40
140
1.0
141
40.0
290
     0
  0
SCALE
  5
52
102
{ACAD_REACTORS
330
47
102
}
330
47
100
AcDbScale
 70
     0
300
1:50
140
1.0
141
50.0
290
     0
  0
SCALE
  5
53
102
{ACAD_REACTORS
330
47
102
}
330
47
100
AcDbScale
 70
     0
300
1:100
140
1.0
141
100.0
290
     0
  0
SCALE
  5
54
102
{ACAD_REACTORS
330
47
102
}
330
47
100
AcDbScale
 70
     0
300
2:1
140
2.0
141
1.0
290
     0
  0
SCALE
  5
55
102
{ACAD_REACTORS
330
47
102
}
330
47
100
AcDbScale
 70
     0
300
4:1
140
4.0
141
1.0
290
     0
  0
SCALE
  5
56
102
{ACAD_REACTORS
330
47
102
}
330
47
100
AcDbScale
 70
     0
300
8:1
140
8.0
141
1.0
290
     0
  0
SCALE
  5
57
102
{ACAD_REACTORS
330
47
102
}
330
47
100
AcDbScale
 70
     0
300
10:1
140
10.0
141
1.0
290
     0
  0
SCALE
  5
58
102
{ACAD_REACTORS
330
47
102
}
330
47
100
AcDbScale
 70
     0
300
100:1
140
100.0
141
1.0
290
     0
  0
ENDSEC
  0
EOF
